<svg width="29" height="29" viewBox="0 0 29 29" fill="none" xmlns="http://www.w3.org/2000/svg">
<path fill-rule="evenodd" clip-rule="evenodd" d="M14.1329 5.13924H14.8671V0H14.1329V5.13924ZM14.5 7.34177C10.7553 7.34177 7.70886 10.3882 7.70886 14.1329C7.70886 17.8776 10.7553 20.9241 14.5 20.9241C18.2447 20.9241 21.2911 17.8776 21.2911 14.1329C21.2911 10.3882 18.2447 7.34177 14.5 7.34177ZM14.5 21.6582C10.3504 21.6582 6.97468 18.2825 6.97468 14.1329C6.97468 9.98334 10.3504 6.6076 14.5 6.6076C18.6496 6.6076 22.0253 9.98334 22.0253 14.1329C22.0253 18.2825 18.6496 21.6582 14.5 21.6582ZM14.8671 29H14.1329V23.8608H14.8671V29ZM0 14.8671H5.13924V14.1329H0V14.8671ZM29 14.8671H23.8608V14.1329H29V14.8671ZM7.98847 7.7734L4.35466 4.13959L4.87372 3.62052L8.50753 7.25433L7.98847 7.7734ZM21.2267 21.0117L24.8606 24.6455L25.3796 24.1264L21.7458 20.4926L21.2267 21.0117ZM4.50653 24.6455L3.98746 24.1264L7.62127 20.4926L8.14034 21.0117L4.50653 24.6455ZM20.8596 7.25433L21.3786 7.7734L25.0124 4.13959L24.4934 3.62052L20.8596 7.25433Z" fill="#6E6E6E"/>
</svg>
