<svg width="22" height="17" viewBox="0 0 22 17" fill="none" xmlns="http://www.w3.org/2000/svg">
<path fill-rule="evenodd" clip-rule="evenodd" d="M6.2553 2.7817C6.20019 2.7817 6.14508 2.76056 6.10197 2.71829C6.01308 2.63076 6.00975 2.48534 6.09441 2.39368C7.38019 0.998075 9.11464 0.229858 10.9782 0.229858C12.7797 0.229858 14.4733 0.954886 15.7471 2.2717C15.834 2.36152 15.834 2.50694 15.7471 2.59653C15.6604 2.68636 15.5197 2.68636 15.4329 2.59653C14.2431 1.36656 12.6611 0.689318 10.9782 0.689318C9.23752 0.689318 7.6173 1.40722 6.41619 2.71025C6.37241 2.7578 6.31397 2.7817 6.2553 2.7817ZM4.66993 2.40636C4.61237 2.40636 4.54682 2.42336 4.48415 2.47804C3.53838 3.30299 2.54794 5.60831 1.59017 7.8376L1.59015 7.83763C1.43704 8.19417 1.28482 8.54842 1.13415 8.89324C0.430596 10.5036 0.266818 11.726 0.633263 12.6303C1.06793 13.7024 2.20726 14.2119 3.33704 14.642C3.7286 14.7909 4.14971 14.7346 4.49282 14.4872C4.83837 14.2381 5.0366 13.8455 5.0366 13.4104V2.79047C5.0366 2.61105 4.91682 2.48953 4.81415 2.44036C4.78526 2.42658 4.73237 2.40636 4.66993 2.40636ZM3.77655 15.1837C3.57811 15.1837 3.37811 15.1472 3.18344 15.0732C2.01544 14.6284 0.726998 14.0502 0.223442 12.8076C-0.193447 11.7796 -0.0281133 10.4373 0.728998 8.7044C0.87922 8.36004 1.031 8.00695 1.18389 7.65109C2.16211 5.37424 3.17366 3.0202 4.19744 2.12678C4.42055 1.93243 4.72833 1.89269 5.00144 2.02363C5.29278 2.16354 5.481 2.46449 5.481 2.79047V13.4104C5.481 13.9893 5.20655 14.5326 4.747 14.8641C4.45366 15.0755 4.11789 15.1837 3.77655 15.1837ZM17.1754 2.40636C17.113 2.40636 17.0601 2.42658 17.0312 2.44036C16.9285 2.48953 16.8088 2.61105 16.8088 2.79047V13.4104C16.8088 13.8455 17.007 14.2381 17.3525 14.4872C17.6956 14.7346 18.117 14.7909 18.5083 14.642C19.6381 14.2119 20.7774 13.7024 21.2121 12.6303C21.5785 11.726 21.4148 10.5036 20.7114 8.89324C20.5605 8.54842 20.4083 8.19417 20.2552 7.83763L20.2552 7.83761C19.2974 5.60832 18.307 3.303 17.3612 2.47804C17.2985 2.42336 17.233 2.40636 17.1754 2.40636ZM18.0688 15.1837C17.7275 15.1837 17.3919 15.0755 17.0984 14.8641C16.6388 14.5326 16.3644 13.9893 16.3644 13.4104V2.79047C16.3644 2.46449 16.5526 2.16354 16.8439 2.02363C17.1166 1.89269 17.4246 1.93243 17.6479 2.12678C18.6717 3.0202 19.6832 5.37424 20.6615 7.65109C20.8144 8.00695 20.9661 8.36004 21.1164 8.7044C21.8735 10.4373 22.0388 11.7796 21.6219 12.8076C21.1184 14.0502 19.8299 14.6284 18.6619 15.0732C18.4672 15.1472 18.267 15.1837 18.0688 15.1837ZM10.9227 13.0572C11.7758 13.0572 12.4674 12.5805 12.4674 11.9926C12.4674 11.4045 11.7758 10.9278 10.9227 10.9278C10.0694 10.9278 9.37804 11.4045 9.37804 11.9926C9.37804 12.5805 10.0694 13.0572 10.9227 13.0572ZM8.17653 8.44396C8.17653 8.73778 7.94608 8.97601 7.66164 8.97601C7.37719 8.97601 7.14675 8.73778 7.14675 8.44396C7.14675 8.14991 7.37719 7.91168 7.66164 7.91168C7.94608 7.91168 8.17653 8.14991 8.17653 8.44396ZM14.1838 8.97601C14.468 8.97601 14.6987 8.73778 14.6987 8.44396C14.6987 8.14991 14.468 7.91168 14.1838 7.91168C13.8993 7.91168 13.6689 8.14991 13.6689 8.44396C13.6689 8.73778 13.8993 8.97601 14.1838 8.97601ZM6.09823 14.934C7.372 16.251 9.06578 16.9763 10.8671 16.9763C12.7307 16.9763 14.4651 16.2078 15.7509 14.8124C15.8356 14.7208 15.8322 14.5754 15.7433 14.4878C15.6544 14.4003 15.514 14.4035 15.4291 14.4956C14.228 15.7989 12.6078 16.5168 10.8671 16.5168C9.18445 16.5168 7.60245 15.8393 6.41245 14.6091C6.32556 14.5195 6.18489 14.5195 6.09823 14.6091C6.01134 14.6989 6.01134 14.8444 6.09823 14.934Z" fill="#6E6E6E"/>
</svg>
