<svg width="18" height="19" viewBox="0 0 18 19" fill="none" xmlns="http://www.w3.org/2000/svg">
<path fill-rule="evenodd" clip-rule="evenodd" d="M7.35485 0.514286C3.58308 0.514286 0.51434 3.58303 0.51434 7.35506V8.07531C0.51434 10.862 2.1922 13.348 4.78883 14.409C4.88551 14.4483 4.94877 14.5427 4.94877 14.6471V16.3823C4.94877 17.1296 5.55665 17.7377 6.30417 17.7377H6.85324V15.9857C6.85324 15.8435 6.96844 15.7285 7.11038 15.7285C7.25233 15.7285 7.36753 15.8435 7.36753 15.9857V17.7377H10.0782V15.9857C10.0782 15.8435 10.1934 15.7285 10.3353 15.7285C10.4773 15.7285 10.5925 15.8435 10.5925 15.9857V17.7377H11.5447C12.292 17.7377 12.9001 17.1296 12.9001 16.3823V14.6471C12.9001 14.5427 12.9634 14.4483 13.0601 14.409C15.6567 13.348 17.3346 10.862 17.3346 8.07531V7.35506C17.3346 3.58303 14.2658 0.514286 10.4941 0.514286H7.35485ZM10.3435 18.252H11.5448C12.5757 18.252 13.4145 17.4135 13.4145 16.3823V14.8176C16.1142 13.6419 17.8489 11.0142 17.8489 8.07531V7.35506C17.8489 3.2994 14.5495 0 10.4941 0H7.35492C3.29952 0 0.00012207 3.2994 0.00012207 7.35506V8.07531C0.00012207 11.0142 1.73481 13.6419 4.43455 14.8176V16.3823C4.43455 17.4135 5.27309 18.252 6.30424 18.252H7.10226L7.11038 18.2521L7.11851 18.252H10.3272L10.3353 18.2521L10.3435 18.252ZM5.49785 7.77054C4.52817 7.77054 3.73925 8.55945 3.73925 9.52914C3.73925 10.4986 4.52817 11.2877 5.49785 11.2877C6.46754 11.2877 7.2562 10.4986 7.2562 9.52914C7.2562 8.55945 6.46754 7.77054 5.49785 7.77054ZM5.49785 11.802C4.24454 11.802 3.22497 10.7825 3.22497 9.52914C3.22497 8.27583 4.24454 7.25625 5.49785 7.25625C6.75117 7.25625 7.77048 8.27583 7.77048 9.52914C7.77048 10.7825 6.75117 11.802 5.49785 11.802ZM10.5924 9.52914C10.5924 8.55945 11.3814 7.77054 12.351 7.77054C13.3207 7.77054 14.1094 8.55945 14.1094 9.52914C14.1094 10.4986 13.3207 11.2877 12.351 11.2877C11.3814 11.2877 10.5924 10.4986 10.5924 9.52914ZM10.0782 9.52914C10.0782 10.7825 11.0977 11.802 12.351 11.802C13.6044 11.802 14.6237 10.7825 14.6237 9.52914C14.6237 8.27583 13.6044 7.25625 12.351 7.25625C11.0977 7.25625 10.0782 8.27583 10.0782 9.52914Z" fill="#6E6E6E"/>
</svg>
